<svg width="100" height="18" viewBox="0 0 100 18" fill="none" xmlns="http://www.w3.org/2000/svg">
<g clip-path="url(#clip0_132_16041)">
<path d="M14.0203 4.17047C14.0203 2.08181 12.6463 0.898193 9.61796 0.898193H4.02853L0 17.1045H5.40126C10.1471 17.1045 12.395 14.8608 12.395 11.7133C12.395 10.2486 11.5211 9.09526 9.33508 8.90871L9.36665 8.75241C12.395 8.44106 14.019 6.47719 14.019 4.17047H14.0203ZM5.71445 13.3016H5.43283L6.18171 10.3722H6.86871C7.8992 10.3722 8.27427 10.7465 8.27427 11.3075C8.27427 12.3675 7.1819 13.3016 5.71445 13.3016ZM7.08845 7.50451H6.86997L7.58854 4.66837H8.27554C9.27446 4.66837 9.58639 4.97971 9.58639 5.60366C9.58639 6.694 8.43087 7.50451 7.08845 7.50451V7.50451Z" fill="#0F1C14"/>
<path d="M26.2915 4.29385C26.2915 2.42325 25.1044 0.678711 22.2011 0.678711C16.9552 0.678711 13.0214 6.63209 13.0214 12.2413C13.0214 15.3586 14.8323 17.3212 17.6737 17.3212C21.6391 17.3212 23.762 14.5166 24.574 11.025H20.0467C19.7966 12.2401 19.2978 13.2687 18.5161 13.2687C17.891 13.2687 17.5487 12.7392 17.5487 11.5859C17.5487 11.2115 17.5803 10.8069 17.6422 10.401C23.1066 10.2145 26.2915 7.90772 26.2915 4.29259V4.29385ZM21.3272 4.57494C21.7957 4.57494 22.0761 4.85603 22.0761 5.29217C22.0445 6.19595 20.9521 7.09974 18.5792 7.22453C19.2662 5.72831 20.2336 4.57494 21.3272 4.57494V4.57494Z" fill="#0F1C14"/>
<path d="M36.3136 0.897705H27.7577L26.7272 5.10528H29.0383L26.0415 17.1053H30.7873L33.7841 5.10528H35.2831L36.3136 0.897705Z" fill="#0F1C14"/>
<path d="M45.6184 0.897705H37.0941L36.0636 5.10528H37.5626L34.5646 17.1053H39.3117L42.3084 5.10528H44.5879L45.6184 0.897705Z" fill="#0F1C14"/>
<path d="M50.3023 11.0262C50.0522 12.2413 49.5534 13.2699 48.7717 13.2699C48.1466 13.2699 47.8043 12.7405 47.8043 11.5871C47.8043 11.2128 47.8359 10.8082 47.8978 10.4023C53.3622 10.2157 56.5471 7.90898 56.5471 4.29385C56.5471 2.42325 55.36 0.678711 52.4567 0.678711C47.2108 0.678711 43.277 6.63209 43.277 12.2413C43.277 15.3586 45.0879 17.3212 47.9294 17.3212C51.8947 17.3212 54.0176 14.5166 54.8296 11.025H50.3023V11.0262ZM51.5828 4.57494C52.0513 4.57494 52.3317 4.85603 52.3317 5.29217C52.3001 6.19595 51.2077 7.09974 48.8348 7.22453C49.5218 5.72831 50.4892 4.57494 51.5828 4.57494V4.57494Z" fill="#0F1C14"/>
<path d="M63.7606 9.81123L63.7922 9.62468C66.5402 9.40661 68.3827 7.31795 68.4446 4.51333C68.5065 2.26962 67.1956 0.898193 63.7606 0.898193H58.4213L54.3624 17.1045H58.8279L60.2335 11.557H61.0771C61.951 11.557 62.2642 11.8999 62.0444 12.8352L61.0455 17.1045H65.6979L66.3533 13.0217C66.6652 11.1827 65.9782 10.0608 63.7619 9.81123H63.7606ZM61.3877 7.94064H61.1693L61.9813 4.69988H62.6683C63.7303 4.69988 64.1041 5.07425 64.0738 5.69694C64.012 7.03686 62.8249 7.94064 61.389 7.94064H61.3877Z" fill="#0F1C14"/>
<path d="M77.5613 7.38049H73.5643L74.1263 5.10528H78.2167L79.2472 0.897705H70.536L66.5074 17.1053H71.1283L72.5022 11.5881H76.4992L77.5613 7.38049Z" fill="#0F1C14"/>
<path d="M81.7136 12.8977L84.7116 0.897705H80.0895L76.0623 17.1053H84.3984L85.4289 12.8977H81.7136Z" fill="#0F1C14"/>
<path d="M89.9257 7.78638H89.7691L90.6127 0.897705H85.5233L86.4591 12.2738L85.2417 17.1053H89.8625L91.0812 12.2738L97.638 0.897705H92.3301L89.9257 7.78638Z" fill="#0F1C14"/>
<path d="M99.133 1.69912C98.9912 1.69912 98.8762 1.69912 98.8289 1.69705C98.8289 1.60413 98.8289 1.50707 98.8289 1.40588C98.9111 1.40382 99.0631 1.39969 99.1289 1.39969C99.3138 1.39969 99.3796 1.42653 99.3796 1.54837C99.3796 1.64956 99.3117 1.69912 99.133 1.69912ZM99.3282 1.79824C99.511 1.77552 99.5912 1.69912 99.5912 1.52565C99.5912 1.27991 99.4453 1.22829 99.209 1.22829H98.6152C98.6173 1.37077 98.6214 1.50913 98.6214 1.7177C98.6214 1.92214 98.6173 2.05844 98.6152 2.19679H98.8412C98.8371 2.11419 98.833 2.00062 98.831 1.86845C98.9255 1.86845 99.0446 1.86432 99.1535 1.86432C99.3241 1.86432 99.3446 1.91801 99.4104 2.15343C99.4186 2.18647 99.4289 2.19679 99.4597 2.19679H99.6651C99.6467 2.15962 99.6241 2.09148 99.5973 2.00681C99.5501 1.85606 99.4782 1.81683 99.3282 1.80031V1.79824ZM99.1022 2.40536C98.6132 2.40536 98.3748 2.18234 98.3748 1.71357C98.3748 1.24481 98.6132 1.02178 99.1022 1.02178C99.5912 1.02178 99.8275 1.24481 99.8275 1.71357C99.8275 2.18234 99.5891 2.40536 99.1022 2.40536ZM99.1001 0.858643C98.5063 0.858643 98.2002 1.15188 98.2002 1.7177C98.2002 2.2794 98.5002 2.5685 99.1001 2.5685C99.7001 2.5685 100 2.2794 100 1.7177C100 1.15188 99.696 0.858643 99.1001 0.858643Z" fill="#0F1C14"/>
</g>
<defs>
<clipPath id="clip0_132_16041">
<rect width="100" height="16.6425" fill="white" transform="translate(0 0.678711)"/>
</clipPath>
</defs>
</svg>
