<svg width="48" height="54" viewBox="0 0 48 54" fill="none" xmlns="http://www.w3.org/2000/svg">
<g clip-path="url(#clip0_419_36817)">
<path d="M24 48C37.2548 48 48 37.2548 48 24C48 10.7452 37.2548 0 24 0C10.7452 0 0 10.7452 0 24C0 37.2548 10.7452 48 24 48Z" fill="url(#paint0_radial_419_36817)"/>
<path d="M24 48C37.2548 48 48 37.2548 48 24C48 10.7452 37.2548 0 24 0C10.7452 0 0 10.7452 0 24C0 37.2548 10.7452 48 24 48Z" fill="url(#paint1_radial_419_36817)"/>
<path d="M25.073 4.98303C25.9237 4.56328 26.9538 4.91265 27.3738 5.76331C27.5377 6.09546 27.5827 6.45474 27.5281 6.79456L29.0603 6.11096C29.9258 5.72437 30.9423 6.11132 31.3289 6.97815C31.6335 7.66025 31.4565 8.43405 30.9441 8.92151C32.9156 9.56671 34.6445 10.5166 35.8962 11.7682V11.7701C41.0491 16.923 41.049 32.3809 35.8962 37.5338C30.7434 42.6866 17.8616 42.6866 12.7087 37.5338C7.55611 32.3809 7.55617 16.9235 12.7087 11.7223C13.5467 10.8764 14.5976 10.1726 15.7908 9.60901C15.8867 9.53194 15.9922 9.46361 16.1072 9.40686L25.073 4.98303Z" fill="url(#paint2_radial_419_36817)"/>
<path d="M27.3678 24.5484C27.4073 24.4504 27.4421 24.3509 27.4705 24.2497C27.6031 23.7893 27.1973 23.3941 26.7125 23.3941H22.607C22.1222 23.3941 21.7164 23.7893 21.849 24.2497C21.8775 24.3509 21.9122 24.4504 21.9517 24.5484C22.0985 24.914 22.3149 25.247 22.5865 25.5254C22.8581 25.8055 23.1818 26.0279 23.5371 26.1788C23.8923 26.3297 24.2745 26.4075 24.6582 26.4075C25.0419 26.4075 25.424 26.3297 25.7793 26.1788C26.1346 26.0279 26.4583 25.8055 26.7299 25.5254C27.0015 25.2454 27.2178 24.914 27.3647 24.5484H27.3678Z" fill="#0F1C14"/>
<path fill-rule="evenodd" clip-rule="evenodd" d="M20.8966 13.7248C20.9263 13.9715 20.7502 14.1956 20.5034 14.2252C19.5004 14.3456 18.6787 14.7597 18.0273 15.5493C17.8691 15.741 17.5855 15.7682 17.3938 15.6101C17.202 15.4519 17.1748 15.1683 17.333 14.9765C18.1439 13.9936 19.1835 13.4771 20.3962 13.3316C20.643 13.3019 20.867 13.478 20.8966 13.7248Z" fill="#0F1C14"/>
<path fill-rule="evenodd" clip-rule="evenodd" d="M27.8916 13.7248C27.862 13.9715 28.038 14.1956 28.2848 14.2252C29.2878 14.3456 30.1095 14.7597 30.7609 15.5493C30.9191 15.741 31.2027 15.7682 31.3945 15.6101C31.5862 15.4519 31.6134 15.1683 31.4552 14.9765C30.6443 13.9936 29.6047 13.4771 28.392 13.3316C28.1452 13.3019 27.9212 13.478 27.8916 13.7248Z" fill="#0F1C14"/>
<path d="M19.9847 21.0471C20.5603 21.0471 21.0268 20.5805 21.0268 20.005C21.0268 19.4295 20.5603 18.9629 19.9847 18.9629C19.4092 18.9629 18.9426 19.4295 18.9426 20.005C18.9426 20.5805 19.4092 21.0471 19.9847 21.0471Z" fill="#0F1C14"/>
<path d="M20.4278 19.938C20.587 19.938 20.716 19.809 20.716 19.6498C20.716 19.4907 20.587 19.3616 20.4278 19.3616C20.2687 19.3616 20.1396 19.4907 20.1396 19.6498C20.1396 19.809 20.2687 19.938 20.4278 19.938Z" fill="white"/>
<path d="M29.2462 21.047C29.8217 21.047 30.2883 20.5804 30.2883 20.0049C30.2883 19.4293 29.8217 18.9628 29.2462 18.9628C28.6707 18.9628 28.2041 19.4293 28.2041 20.0049C28.2041 20.5804 28.6707 21.047 29.2462 21.047Z" fill="#0F1C14"/>
<path d="M29.6883 19.9376C29.8475 19.9376 29.9765 19.8086 29.9765 19.6495C29.9765 19.4903 29.8475 19.3613 29.6883 19.3613C29.5292 19.3613 29.4001 19.4903 29.4001 19.6495C29.4001 19.8086 29.5292 19.9376 29.6883 19.9376Z" fill="white"/>
</g>
<defs>
<radialGradient id="paint0_radial_419_36817" cx="0" cy="0" r="1" gradientUnits="userSpaceOnUse" gradientTransform="translate(25.2497 21.5968) rotate(131.433) scale(36.4134)">
<stop offset="0.566137" stop-color="#19F578" stop-opacity="0"/>
<stop offset="1" stop-color="#19F578"/>
</radialGradient>
<radialGradient id="paint1_radial_419_36817" cx="0" cy="0" r="1" gradientUnits="userSpaceOnUse" gradientTransform="translate(16.9186 30.4406) rotate(-48.9219) scale(38.4267)">
<stop offset="0.566137" stop-color="#E8FB10" stop-opacity="0"/>
<stop offset="1" stop-color="#E8FB10"/>
</radialGradient>
<radialGradient id="paint2_radial_419_36817" cx="0" cy="0" r="1" gradientUnits="userSpaceOnUse" gradientTransform="translate(46.5262 -4.03855) rotate(129.887) scale(56.9611 51.9785)">
<stop offset="0.304457" stop-color="#EBF660"/>
<stop offset="0.63316" stop-color="#19F578"/>
<stop offset="0.927083" stop-color="#00804C"/>
</radialGradient>
<clipPath id="clip0_419_36817">
<rect width="48" height="48.0001" fill="white"/>
</clipPath>
</defs>
</svg>
