<svg width="81" height="66" viewBox="0 0 81 66" fill="none" xmlns="http://www.w3.org/2000/svg">
<mask id="mask0_419_41183" style="mask-type:luminance" maskUnits="userSpaceOnUse" x="0" y="0" width="81" height="66">
<path d="M70.8071 33.0216C98.0677 8.6562 60.9941 -13.734 43.3164 12.327C35.9793 3.00566 19.5733 -4.12403 10.0716 4.52089C10.0986 4.49383 10.1257 4.46677 10.1527 4.43972C8.74573 6.01357 3.20341 10.8253 2.27443 12.6382C-3.00633 20.6518 4.12338 34.5594 15.4245 40.458C3.0546 59.6103 26.8428 74.8798 40.6422 58.068C46.879 64.9091 57.6029 68.3815 64.5297 62.05L70.6943 56.0026C70.6943 56.0026 70.6898 56.0071 70.6853 56.0116C76.0202 50.7308 74.9018 41.4185 68.7416 34.4106C69.4451 33.9867 70.1351 33.5312 70.8071 33.0306V33.0216ZM36.2769 58.8391C36.2769 58.8391 36.2679 58.8391 36.2634 58.8391C36.2634 58.8391 36.2724 58.8391 36.2769 58.8391Z" fill="white"/>
</mask>
<g mask="url(#mask0_419_41183)">
<path d="M15.4195 40.4501L21.5842 34.4027L11.8659 3.10147L-3.60205 16.6799L3.36531 33.636L15.4195 40.4501Z" fill="url(#paint0_linear_419_41183)"/>
<path d="M21.5846 34.4027L15.4199 40.4501C15.4199 40.4501 4.05568 52.5133 15.4199 62.3082C26.7841 72.0986 34.6534 64.3014 40.6377 58.0601L46.6265 51.8189L21.5846 34.4027Z" fill="url(#paint1_linear_419_41183)"/>
<path d="M40.6394 58.0598L46.6282 51.8185L73.271 53.1173L61.9158 67.0475C61.9158 67.0475 53.9518 69.6811 45.8661 65.3654C40.5041 62.5018 40.6439 58.0553 40.6439 58.0553L40.6394 58.0598Z" fill="url(#paint2_linear_419_41183)"/>
<path d="M75.8435 4.13807C87.5459 13.6533 78.3373 29.7076 69.6337 34.4968C85.706 54.3075 61.6968 68.7337 46.6257 51.8182C33.5613 69.2929 8.97039 53.0989 21.5838 34.4021C4.55097 23.0424 3.64002 10.7086 10.0707 4.51688C17.6243 -2.75261 32.0371 -1.2915 43.3156 12.323C49.8501 1.3827 65.318 -4.42117 75.8435 4.13356V4.13807Z" fill="url(#paint3_linear_419_41183)"/>
</g>
<defs>
<linearGradient id="paint0_linear_419_41183" x1="0.790315" y1="9.83432" x2="21.2865" y2="35.4715" gradientUnits="userSpaceOnUse">
<stop stop-color="#0DC567"/>
<stop offset="0.47" stop-color="#06A259"/>
<stop offset="0.98" stop-color="#00804C"/>
</linearGradient>
<linearGradient id="paint1_linear_419_41183" x1="15.1629" y1="38.3396" x2="36.6647" y2="63.9813" gradientUnits="userSpaceOnUse">
<stop stop-color="#00804C"/>
<stop offset="0.49" stop-color="#0DC567"/>
<stop offset="0.62" stop-color="#0AB761"/>
<stop offset="0.87" stop-color="#039454"/>
<stop offset="0.99" stop-color="#00804C"/>
</linearGradient>
<linearGradient id="paint2_linear_419_41183" x1="49.7443" y1="48.1973" x2="64.7343" y2="66.0734" gradientUnits="userSpaceOnUse">
<stop stop-color="#00804C"/>
<stop offset="0.29" stop-color="#039052"/>
<stop offset="0.87" stop-color="#0ABA62"/>
<stop offset="1" stop-color="#0DC567"/>
</linearGradient>
<linearGradient id="paint3_linear_419_41183" x1="15.3515" y1="52.1429" x2="82.3914" y2="-6.11688" gradientUnits="userSpaceOnUse">
<stop offset="0.01" stop-color="#19F578"/>
<stop offset="0.06" stop-color="#24F572"/>
<stop offset="0.47" stop-color="#8CF83D"/>
<stop offset="0.75" stop-color="#CEFA1C"/>
<stop offset="0.88" stop-color="#E8FB10"/>
</linearGradient>
</defs>
</svg>
